<?xml version="1.0" encoding="UTF-8"?>
<svg width="700pt" height="700pt" version="1.1" viewBox="0 0 700 700" xmlns="http://www.w3.org/2000/svg">
 <g>
  <path d="m573.65 375.02-92.051-29.227 0.003906 0.003906c-9.543-3.0625-19.73-3.4922-29.496-1.2422-9.7656 2.2461-18.738 7.0898-25.98 14.016l-23.625 23.625c-3.2188 3.1328-7.375 5.1211-11.836 5.6602-4.457 0.53906-8.9688-0.40625-12.84-2.6836-18.832-11.617-36.949-24.355-54.25-38.152-14.688-11.711-28.012-25.035-39.723-39.723-14.035-17.281-27.008-35.398-38.852-54.25-2.2773-3.8711-3.2227-8.3828-2.6836-12.84 0.53516-4.4609 2.5234-8.6172 5.6602-11.836l23.625-24.5c6.9414-7.1953 11.809-16.133 14.086-25.867 2.2812-9.7344 1.8867-19.902-1.1367-29.434l-29.574-92.223c-4.2539-13.297-13.332-24.516-25.449-31.449-12.113-6.9297-26.387-9.0742-40.004-6.0039l-43.75 9.9766c-18.305 4.2812-33.27 17.406-39.898 35-72.102 189.88 90.301 342.3 104.12 356.12 10.676 11.898 115.15 122.5 256.9 122.5 33.812 0.30469 67.391-5.6289 99.051-17.5 17.594-6.6289 30.719-21.594 35-39.898l9.9766-43.75c3.3242-13.723 1.3242-28.191-5.5898-40.496-6.918-12.309-18.238-21.535-31.688-25.832zm3.8516 57.578-9.9766 43.75c-1.7109 6.9414-6.7617 12.582-13.473 15.047-171.5 65.102-315-94.5-317.45-96.074-0.375-0.55078-0.85156-1.0273-1.4023-1.3984-1.75-1.3984-161.35-145.6-96.074-317.45 2.4648-6.7148 8.1055-11.766 15.051-13.477l43.223-10.5c1.5117-0.17969 3.0391-0.17969 4.5508 0 4.3828 0.03125 8.6445 1.4297 12.191 4.0039 3.543 2.5742 6.1953 6.1914 7.5859 10.348l29.227 92.227-0.003906-0.003906c1.1328 3.5508 1.293 7.3398 0.46094 10.973-0.83203 3.6328-2.6211 6.9727-5.1836 9.6797l-23.625 24.324c-8.4375 8.8281-13.754 20.172-15.145 32.305-1.3906 12.133 1.2227 24.387 7.4414 34.895 12.418 20.012 25.973 39.293 40.602 57.75 13.367 16.863 28.637 32.133 45.5 45.5 18.457 14.629 37.738 28.184 57.75 40.602 10.5 6.2461 22.762 8.875 34.898 7.4844 12.141-1.3906 23.488-6.7266 32.301-15.188l24.324-23.449c2.6875-2.5938 6.0234-4.4141 9.6562-5.2773 3.6328-0.86328 7.4297-0.73047 10.996 0.37891l92.227 29.227-0.003906-0.003906c5.0117 1.5117 9.2695 4.8516 11.93 9.3594 2.6602 4.5078 3.5234 9.8516 2.4219 14.969z"/>
  <path d="m387.1 52.5c48.387 6.0469 93.383 28.051 127.87 62.531 34.48 34.484 56.484 79.48 62.531 127.87 0.51562 4.2695 2.5859 8.1992 5.8125 11.039s7.3867 4.3945 11.688 4.3633h2.1016c4.6875-0.52344 8.9688-2.918 11.867-6.6406 2.9023-3.7227 4.1719-8.4609 3.5312-13.137-6.8867-56.223-32.387-108.53-72.441-148.58-40.055-40.055-92.359-65.555-148.58-72.441-6.2539-0.78125-12.449 1.832-16.25 6.8555-3.8047 5.0234-4.6367 11.695-2.1875 17.5 2.4492 5.8047 7.8086 9.8633 14.062 10.645z"/>
  <path d="m372.75 125.82c33.41 4.1484 64.484 19.328 88.289 43.137 23.809 23.805 38.988 54.879 43.137 88.289 0.51562 4.2695 2.5859 8.1992 5.8125 11.039 3.2266 2.8398 7.3867 4.3906 11.688 4.3594h2.2734c4.625-0.56641 8.832-2.9531 11.688-6.6328 2.8594-3.6797 4.1328-8.3438 3.5391-12.965-5.1328-41.191-23.855-79.492-53.207-108.84-29.352-29.352-67.652-48.074-108.84-53.207-6.2539-0.78125-12.445 1.832-16.25 6.8555-3.8008 5.0234-4.6367 11.695-2.1875 17.5 2.4492 5.8047 7.8086 9.8633 14.062 10.645z"/>
  <path d="m358.05 213.85c14.77 1.832 28.504 8.543 39.027 19.07 10.527 10.523 17.238 24.258 19.07 39.027 0.51562 4.2695 2.5859 8.1992 5.8125 11.039 3.2305 2.8398 7.3906 4.3945 11.688 4.3633h2.1016c4.5898-0.57031 8.7656-2.9336 11.621-6.5742 2.8516-3.6406 4.1484-8.2617 3.6055-12.852-2.793-22.516-13.02-43.453-29.059-59.492-16.043-16.043-36.98-26.27-59.492-29.059-6.2539-0.75-12.43 1.8906-16.207 6.9297-3.7734 5.043-4.5742 11.711-2.0977 17.5 2.4766 5.793 7.8516 9.8203 14.105 10.57z"/>
 </g>
</svg>
